<svg xmlns="http://www.w3.org/2000/svg" version="1.1" xmlns:xlink="http://www.w3.org/1999/xlink" xmlns:svgjs="http://svgjs.dev/svgjs" width="1440" height="400" preserveAspectRatio="none" viewBox="0 0 1440 400"><g mask="url(&quot;#SvgjsMask3592&quot;)" fill="none"><rect width="1440" height="400" x="0" y="0" fill="url(&quot;#SvgjsLinearGradient3593&quot;)"></rect><path d="M20 400L420 0L679.5 0L279.5 400z" fill="url(&quot;#SvgjsLinearGradient3594&quot;)"></path><path d="M277.6 400L677.6 0L920.6 0L520.6 400z" fill="url(&quot;#SvgjsLinearGradient3594&quot;)"></path><path d="M492.20000000000005 400L892.2 0L1177.2 0L777.2 400z" fill="url(&quot;#SvgjsLinearGradient3594&quot;)"></path><path d="M733.8000000000001 400L1133.8000000000002 0L1301.8000000000002 0L901.8000000000001 400z" fill="url(&quot;#SvgjsLinearGradient3594&quot;)"></path><path d="M1401 400L1001 0L740 0L1140 400z" fill="url(&quot;#SvgjsLinearGradient3595&quot;)"></path><path d="M1179.4 400L779.4000000000001 0L443.4000000000001 0L843.4000000000001 400z" fill="url(&quot;#SvgjsLinearGradient3595&quot;)"></path><path d="M937.8 400L537.8 0L479.29999999999995 0L879.3 400z" fill="url(&quot;#SvgjsLinearGradient3595&quot;)"></path><path d="M683.1999999999999 400L283.19999999999993 0L136.19999999999993 0L536.1999999999999 400z" fill="url(&quot;#SvgjsLinearGradient3595&quot;)"></path><path d="M1044.3271949871114 400L1440 4.327194987111454L1440 400z" fill="url(&quot;#SvgjsLinearGradient3594&quot;)"></path><path d="M0 400L395.67280501288855 400L 0 4.327194987111454z" fill="url(&quot;#SvgjsLinearGradient3595&quot;)"></path></g><defs><mask id="SvgjsMask3592"><rect width="1440" height="400" fill="#ffffff"></rect></mask><linearGradient x1="50%" y1="100%" x2="50%" y2="0%" gradientUnits="userSpaceOnUse" id="SvgjsLinearGradient3593"><stop stop-color="rgba(16, 84, 52, 1)" offset="0.01"></stop><stop stop-color="rgba(8, 82, 14, 1)" offset="1"></stop></linearGradient><linearGradient x1="0%" y1="100%" x2="100%" y2="0%" id="SvgjsLinearGradient3594"><stop stop-color="rgba(7, 125, 31, 0.2)" offset="0"></stop><stop stop-opacity="0" stop-color="rgba(7, 125, 31, 0.2)" offset="0.66"></stop></linearGradient><linearGradient x1="100%" y1="100%" x2="0%" y2="0%" id="SvgjsLinearGradient3595"><stop stop-color="rgba(7, 125, 31, 0.2)" offset="0"></stop><stop stop-opacity="0" stop-color="rgba(7, 125, 31, 0.2)" offset="0.66"></stop></linearGradient></defs></svg>