<svg id="visual" viewBox="0 0 900 600" width="900" height="600" xmlns="http://www.w3.org/2000/svg" xmlns:xlink="http://www.w3.org/1999/xlink" version="1.1"><path d="M0 127L82 127L82 115L164 115L164 97L245 97L245 109L327 109L327 163L409 163L409 61L491 61L491 163L573 163L573 91L655 91L655 79L736 79L736 133L818 133L818 109L900 109L900 73L900 0L900 0L818 0L818 0L736 0L736 0L655 0L655 0L573 0L573 0L491 0L491 0L409 0L409 0L327 0L327 0L245 0L245 0L164 0L164 0L82 0L82 0L0 0Z" fill="#0066ff"></path><path d="M0 199L82 199L82 187L164 187L164 145L245 145L245 169L327 169L327 247L409 247L409 139L491 139L491 205L573 205L573 187L655 187L655 139L736 139L736 223L818 223L818 169L900 169L900 115L900 71L900 107L818 107L818 131L736 131L736 77L655 77L655 89L573 89L573 161L491 161L491 59L409 59L409 161L327 161L327 107L245 107L245 95L164 95L164 113L82 113L82 125L0 125Z" fill="#007aff"></path><path d="M0 319L82 319L82 301L164 301L164 415L245 415L245 295L327 295L327 439L409 439L409 373L491 373L491 331L573 331L573 343L655 343L655 319L736 319L736 397L818 397L818 313L900 313L900 271L900 113L900 167L818 167L818 221L736 221L736 137L655 137L655 185L573 185L573 203L491 203L491 137L409 137L409 245L327 245L327 167L245 167L245 143L164 143L164 185L82 185L82 197L0 197Z" fill="#008cff"></path><path d="M0 361L82 361L82 355L164 355L164 493L245 493L245 379L327 379L327 481L409 481L409 469L491 469L491 427L573 427L573 415L655 415L655 409L736 409L736 451L818 451L818 367L900 367L900 391L900 269L900 311L818 311L818 395L736 395L736 317L655 317L655 341L573 341L573 329L491 329L491 371L409 371L409 437L327 437L327 293L245 293L245 413L164 413L164 299L82 299L82 317L0 317Z" fill="#2b9dfc"></path><path d="M0 601L82 601L82 601L164 601L164 601L245 601L245 601L327 601L327 601L409 601L409 601L491 601L491 601L573 601L573 601L655 601L655 601L736 601L736 601L818 601L818 601L900 601L900 601L900 389L900 365L818 365L818 449L736 449L736 407L655 407L655 413L573 413L573 425L491 425L491 467L409 467L409 479L327 479L327 377L245 377L245 491L164 491L164 353L82 353L82 359L0 359Z" fill="#4facf7"></path></svg>